<svg width="15" height="15" viewBox="0 0 15 15" fill="none" xmlns="http://www.w3.org/2000/svg">
<path d="M9.22225 11.8437C9.16218 11.7858 9.11459 11.7161 9.08243 11.6391C9.05027 11.562 9.03422 11.4792 9.03525 11.3957C9.0341 11.3122 9.0501 11.2294 9.08227 11.1523C9.11443 11.0753 9.16208 11.0056 9.22225 10.9477L11.9723 8.21874H2.16025C2.07743 8.22153 1.99491 8.20727 1.91782 8.17685C1.84073 8.14642 1.77071 8.10049 1.71211 8.04188C1.65351 7.98328 1.60757 7.91327 1.57715 7.83618C1.54673 7.75909 1.53247 7.67657 1.53525 7.59374C1.53291 7.51103 1.54747 7.42871 1.57805 7.35182C1.60863 7.27493 1.65458 7.20509 1.71309 7.14658C1.7716 7.08807 1.84144 7.04211 1.91833 7.01154C1.99522 6.98096 2.07754 6.9664 2.16025 6.96874H11.9723L9.20225 4.21874C9.09326 4.09948 9.03358 3.9433 9.03525 3.78174C9.03488 3.69984 9.05127 3.61872 9.08344 3.54339C9.1156 3.46807 9.16284 3.40012 9.22225 3.34374C9.27557 3.27911 9.34244 3.22698 9.41812 3.19104C9.49381 3.15509 9.57647 3.13622 9.66025 3.13574C9.82725 3.13574 9.98025 3.20574 10.1183 3.34374L13.8483 7.07374C13.9173 7.14274 13.9693 7.22274 14.0043 7.31274C14.0734 7.49369 14.0734 7.69379 14.0043 7.87474C13.9694 7.96492 13.9159 8.04672 13.8473 8.11474L10.0973 11.8647C10.0411 11.9242 9.97333 11.9716 9.89818 12.0039C9.82303 12.0362 9.74206 12.0529 9.66025 12.0527C9.57639 12.0521 9.49368 12.0331 9.41799 11.997C9.3423 11.9609 9.27548 11.9086 9.22225 11.8437Z" fill="white"/>
</svg>
